HIERARCHY
ROOT Hips
{
 OFFSET 0.000000 0.000000 0.000000
 CHANNELS 6 Xposition Yposition Zposition Yrotation Xrotation Zrotation
 JOINT Chest
 {
  OFFSET 0.000000 9.303000 0.001900
  CHANNELS 3 Yrotation Xrotation Zrotation
  JOINT Chest2
  {
   OFFSET 0.000000 9.301100 -0.003900
   CHANNELS 3 Yrotation Xrotation Zrotation
   JOINT Chest3
   {
    OFFSET 0.000000 9.262800 0.000000
    CHANNELS 3 Yrotation Xrotation Zrotation
    JOINT Chest4
    {
     OFFSET 0.000000 9.253300 0.000000
     CHANNELS 3 Yrotation Xrotation Zrotation
     JOINT Neck
     {
      OFFSET 0.000000 14.010300 0.000000
      CHANNELS 3 Yrotation Xrotation Zrotation
      JOINT Head
      {
       OFFSET 0.000000 8.657600 -0.008300
       CHANNELS 3 Yrotation Xrotation Zrotation
       End Site
       {
        OFFSET 0.000000 16.540200 -0.004400
       }
      }
     }
     JOINT RightCollar
     {
      OFFSET -2.834100 9.267700 0.000000
      CHANNELS 3 Yrotation Xrotation Zrotation
      JOINT RightShoulder
      {
       OFFSET -13.135200 0.000000 0.000000
       CHANNELS 3 Yrotation Xrotation Zrotation
       JOINT RightElbow
       {
        OFFSET 0.000000 -28.893500 0.000000
        CHANNELS 3 Yrotation Xrotation Zrotation
        JOINT RightWrist
        {
         OFFSET 0.000000 -23.344000 0.000000
         CHANNELS 3 Yrotation Xrotation Zrotation
         End Site
         {
          OFFSET 0.000000 -17.223000 0.000000
         }
        }
       }
      }
     }
     JOINT LeftCollar
     {
      OFFSET 2.834100 9.267700 0.000000
      CHANNELS 3 Yrotation Xrotation Zrotation
      JOINT LeftShoulder
      {
       OFFSET 13.135200 0.000000 0.000000
       CHANNELS 3 Yrotation Xrotation Zrotation
       JOINT LeftElbow
       {
        OFFSET 0.000000 -28.893500 0.000000
        CHANNELS 3 Yrotation Xrotation Zrotation
        JOINT LeftWrist
        {
         OFFSET 0.000000 -23.344000 0.000000
         CHANNELS 3 Yrotation Xrotation Zrotation
         End Site
         {
          OFFSET 0.000000 -17.223000 0.000000
         }
        }
       }
      }
     }
    }
   }
  }
 }
 JOINT RightHip
 {
  OFFSET -7.547200 -0.009500 -0.001000
  CHANNELS 3 Yrotation Xrotation Zrotation
  JOINT RightKnee
  {
   OFFSET 0.000000 -39.762800 0.000900
   CHANNELS 3 Yrotation Xrotation Zrotation
   JOINT RightAnkle
   {
    OFFSET 0.000000 -38.588200 0.001600
    CHANNELS 3 Yrotation Xrotation Zrotation
    JOINT RightToe
    {
     OFFSET 0.000000 -4.693300 10.419700
     CHANNELS 3 Yrotation Xrotation Zrotation
     End Site
     {
      OFFSET 0.000000 -1.379900 5.669300
     }
    }
   }
  }
 }
 JOINT LeftHip
 {
  OFFSET 7.547200 -0.009500 -0.001000
  CHANNELS 3 Yrotation Xrotation Zrotation
  JOINT LeftKnee
  {
   OFFSET 0.000000 -39.762800 0.000900
   CHANNELS 3 Yrotation Xrotation Zrotation
   JOINT LeftAnkle
   {
    OFFSET 0.000000 -38.588200 0.001600
    CHANNELS 3 Yrotation Xrotation Zrotation
    JOINT LeftToe
    {
     OFFSET 0.000000 -4.693300 10.419700
     CHANNELS 3 Yrotation Xrotation Zrotation
     End Site
     {
      OFFSET 0.000000 -1.379900 5.669300
     }
    }
   }
  }
 }
}
MOTION
Frames: 8
Frame Time: 0.008333
31.295165 46.047263 -5.457356 150.693438 -21.994591 8.132456 -0.012671 25.137615 3.305980 -0.051959 3.992465 0.464055 -0.067561 6.384191 0.741691 0.093342 20.745372 2.463756 19.137833 19.858695 -5.216156 24.233536 -2.276284 -10.824084 14.930659 -0.349996 -22.740371 21.133850 -40.110015 -22.479583 142.161370 -59.476243 -138.406831 -6.631025 -12.298863 -30.174489 -17.816433 -4.688563 -0.024466 14.559792 -40.349407 21.734151 173.889044 -53.845007 177.021753 2.617716 -26.942058 33.903520 -7.812301 -64.691802 10.364201 -88.646244 80.253082 -92.292798 -7.057734 -6.200772 -4.912572 0.360953 1.193617 -0.302718 -0.955628 -61.661356 16.321672 102.151786 76.051894 104.705205 -6.529611 -5.912157 -8.166830 -0.513026 -0.221554 -0.243592
31.321323 46.005918 -5.490178 150.507067 -22.005653 8.160891 0.022363 25.013398 3.273092 -0.052990 3.972827 0.461288 -0.069413 6.354662 0.737408 0.085301 20.706270 2.455093 19.194543 19.860404 -5.266032 24.327848 -2.255220 -10.901416 14.929506 -0.405039 -22.787150 21.181694 -40.017643 -22.420125 142.075462 -59.520464 -138.281779 -6.629797 -12.382366 -30.144927 -17.789611 -4.696267 -0.096043 14.680076 -40.199938 21.692822 174.525948 -53.787918 176.596726 2.567023 -26.962247 33.888026 -8.346030 -64.669748 10.739413 -89.111394 80.283908 -92.770948 -6.798483 -6.398023 -4.934262 0.242437 1.036318 -0.393830 -1.035360 -61.654946 16.863600 102.915831 76.021246 105.180900 -6.780227 -5.791823 -8.102222 -0.485194 -0.457712 -0.101235
31.338680 45.960991 -5.524636 150.300770 -22.012510 8.203720 0.083807 24.887411 3.235454 -0.051903 3.953002 0.458719 -0.067872 6.324915 0.733496 0.088884 20.666527 2.449133 19.246106 19.862384 -5.303912 24.411062 -2.236480 -10.962597 14.911954 -0.472476 -22.827696 21.251750 -39.918543 -22.377021 142.013571 -59.590418 -138.187493 -6.639706 -12.462291 -30.143669 -17.782228 -4.703157 -0.153421 14.769583 -39.980809 21.696312 175.090486 -53.712419 176.250945 2.533991 -26.961796 33.871281 -8.803156 -64.678671 11.052052 -89.703210 80.384533 -93.364999 -6.581831 -6.528947 -4.955003 0.131442 0.865801 -0.472827 -1.047344 -61.641418 17.368212 103.684305 76.001532 105.660763 -7.017086 -5.735444 -8.029828 -0.458836 -0.612152 0.018338
31.351553 45.915397 -5.560647 150.089807 -22.032828 8.240740 0.161627 24.773828 3.207435 -0.048508 3.932886 0.456098 -0.062538 6.294625 0.729587 0.105201 20.625910 2.445030 19.291971 19.861622 -5.327892 24.482001 -2.224323 -11.005224 14.878228 -0.548500 -22.856813 21.342352 -39.816207 -22.354781 141.974077 -59.686352 -138.120025 -6.661246 -12.536647 -30.163749 -17.791284 -4.703114 -0.191346 14.814078 -39.915924 21.659585 175.575136 -53.836486 175.887711 2.512717 -26.938435 33.834375 -9.184922 -64.689775 11.309143 -90.413576 80.536109 -94.043600 -6.447544 -6.630483 -4.989131 0.054800 0.705476 -0.527865 -1.006119 -61.604625 17.835263 104.424965 75.999896 106.129652 -7.228546 -5.757381 -7.946178 -0.436765 -0.682119 0.112181
31.363897 45.871102 -5.596903 149.884045 -22.073624 8.256744 0.249065 24.676456 3.202113 -0.043320 3.912311 0.453445 -0.054401 6.263556 0.725658 0.131236 20.584001 2.442389 19.331965 19.856084 -5.338688 24.540850 -2.221202 -11.030235 14.836062 -0.625736 -22.873401 21.446404 -39.714669 -22.354877 141.952778 -59.805630 -138.072796 -6.693558 -12.605578 -30.194916 -17.813935 -4.690127 -0.211425 14.859829 -39.743108 21.657313 175.930839 -53.892271 175.656385 2.501551 -26.892952 33.772480 -9.503909 -64.684606 11.524826 -91.207339 80.709366 -94.762303 -6.370985 -6.727985 -5.050324 0.038197 0.572505 -0.548164 -0.917254 -61.539223 18.261216 105.104049 76.019858 106.567746 -7.401847 -5.866391 -7.844899 -0.427007 -0.667968 0.176303
31.378109 45.830003 -5.632999 149.683348 -22.140161 8.253209 0.343974 24.599596 3.217638 -0.036423 3.891235 0.450599 -0.043557 6.231851 0.721571 0.166538 20.540971 2.440351 19.364801 19.845923 -5.335997 24.585598 -2.227146 -11.036846 14.789179 -0.702139 -22.873702 21.556527 -39.616652 -22.375985 141.946986 -59.944462 -138.041004 -6.736270 -12.664527 -30.220113 -17.848087 -4.665157 -0.216834 14.908049 -39.546871 21.656418 176.175956 -53.957048 175.503059 2.500624 -26.830980 33.686960 -9.752466 -64.647915 11.695509 -92.011281 80.863091 -95.447164 -6.334668 -6.840828 -5.135552 0.072960 0.477220 -0.537580 -0.759920 -61.443844 18.621971 105.705437 76.058033 106.972879 -7.535233 -6.058266 -7.724442 -0.430039 -0.583660 0.210542
31.394738 45.794001 -5.669357 149.483582 -22.235911 8.244391 0.442929 24.548270 3.240366 -0.027817 3.869680 0.447355 -0.029958 6.199452 0.716962 0.211136 20.496886 2.437660 19.389473 19.831754 -5.320469 24.614992 -2.241588 -11.025563 14.737866 -0.777671 -22.855673 21.663637 -39.526885 -22.416362 141.961634 -60.102099 -138.023677 -6.800194 -12.692167 -30.243710 -17.890622 -4.632654 -0.209752 14.907838 -39.392832 21.681039 176.348214 -54.105849 175.404561 2.507098 -26.764169 33.580817 -9.908370 -64.571581 11.801568 -92.755137 80.960333 -96.033398 -6.330730 -6.979910 -5.233649 0.138534 0.421141 -0.506076 -0.490910 -61.319631 18.873659 106.221265 76.109192 107.348746 -7.632501 -6.323399 -7.584336 -0.446585 -0.447403 0.217616
31.413694 45.764174 -5.704929 149.280670 -22.353600 8.239671 0.540929 24.516547 3.261951 -0.017996 3.847637 0.443793 -0.014465 6.166204 0.711838 0.262428 20.451456 2.434289 19.406906 19.815245 -5.296081 24.631614 -2.261750 -11.001472 14.689677 -0.847585 -22.825298 21.760302 -39.452127 -22.473559 141.987605 -60.276522 -138.008674 -6.853867 -12.713557 -30.213754 -17.933125 -4.593728 -0.195720 14.822071 -39.297254 21.771057 176.471065 -54.361201 175.378086 2.518484 -26.703893 33.457070 -9.966798 -64.460406 11.838807 -93.378113 80.985210 -96.471615 -6.325839 -7.143713 -5.333091 0.225859 0.401846 -0.462478 -0.082456 -61.177257 18.990849 106.640833 76.173314 107.691372 -7.692461 -6.650475 -7.425365 -0.481510 -0.273339 0.201214
